<?xml version="1.0" encoding="UTF-8" standalone="no"?>
<svg width="218px" height="129px" viewBox="0 0 218 129" version="1.1" xmlns="http://www.w3.org/2000/svg" xmlns:xlink="http://www.w3.org/1999/xlink">
    <!-- Generator: Sketch 43.1 (39012) - http://www.bohemiancoding.com/sketch -->
    <title>Group 6</title>
    <desc>Created with Sketch.</desc>
    <defs>
        <polygon id="path-1" points="0 140.626628 218 140.626628 218 0 0 0"></polygon>
    </defs>
    <g id="Finale-Grande" stroke="none" stroke-width="1" fill="none" fill-rule="evenodd">
        <g id="Home" transform="translate(-202.000000, -878.000000)">
            <g id="Group-6" transform="translate(202.000000, 866.000000)">
                <g id="Group-10">
                    <g id="Page-1">
                        <g id="Group-3" transform="translate(0.000000, 27.919391)" fill="#F4F4F4">
                            <path d="M217.999954,8.39423092 C218.016188,3.9109875 214.377907,0.265395395 209.875511,0.251480921 L209.870873,0.251480921 L156.419128,0.251480921 C151.904209,0.2978625 148.279379,3.98102368 148.325762,8.47771776 C148.372145,12.9090138 151.968681,16.491527 156.419128,16.5351257 L209.867162,16.5351257 C214.36863,16.5277046 218.010622,12.885823 217.99949,8.40304342 C217.999954,8.40304342 217.999954,8.39747763 217.999954,8.39423092 M129.69743,0.251480921 L45.3249366,0.251480921 C40.8090898,0.2978625 37.1861153,3.98102368 37.2324983,8.47771776 C37.2779536,12.9090138 40.8744898,16.491527 45.3249366,16.5351257 L54.9939323,16.5351257 C59.5079238,16.5833625 63.131826,20.2665237 63.0845153,24.7632178 C63.0381323,29.1954414 59.44206,32.7760993 54.9939323,32.8224809 L8.09285574,32.8224809 C3.57700894,32.8688625 -0.0459655319,36.5520237 0.000417446808,41.0487178 C0.045872766,45.4786224 3.6433366,49.0615993 8.09285574,49.1075171 L93.3726004,49.1075171 C97.8884472,49.0611355 101.513277,45.3761191 101.465966,40.8789612 C101.41912,36.4490566 97.8235111,32.8683987 93.3726004,32.8220171 L89.855843,32.8220171 C85.3399962,32.7737803 81.7170217,29.0915467 81.7638685,24.5943888 C81.8097877,20.1621651 85.4063238,16.5815072 89.855843,16.5346618 L129.698822,16.5346618 C134.215596,16.4892079 137.838571,12.8055829 137.79126,8.308425 C137.744877,3.87759276 134.147413,0.296471053 129.69743,0.251480921" id="Fill-1"></path>
                        </g>
                        <path d="M35.0483238,115.866843 C35.0418302,118.614488 37.2798089,120.848224 40.0470174,120.85379 L188.682664,120.85379 C191.417405,120.825961 193.628945,118.629793 193.658166,115.913224 C193.68646,113.155839 191.458686,110.896593 188.682664,110.8683 L40.0451621,110.8683 L40.0423791,110.8683 C37.2751706,110.877576 35.0381196,113.112241 35.04786,115.860349 L35.04786,115.866843 L35.0483238,115.866843 Z M140.648915,78.3747572 C140.620622,81.1326059 142.847469,83.390925 145.624417,83.4196816 L170.117877,83.4196816 C172.853545,83.4484382 175.06323,85.6436783 175.092451,88.361175 C175.121673,91.1185599 172.893898,93.3768789 170.117877,93.407027 L42.3225664,93.407027 C39.587826,93.4343921 37.3772132,95.6300961 37.3479919,98.3466651 C37.3187706,101.103122 39.5465451,103.362369 42.3225664,103.391589 L209.054996,103.391589 C211.791128,103.362369 214.002205,101.166665 214.030498,98.4500961 C214.05972,95.6936388 211.832873,93.4343921 209.054996,93.407027 L202.317869,93.407027 C199.583128,93.3778066 197.371588,91.1816388 197.344222,88.4655336 C197.315464,85.7072211 199.541847,83.4484382 202.317869,83.4196816 L211.85189,83.4196816 C214.587558,83.390925 216.798171,81.1956849 216.827392,78.4781882 C216.855686,75.7226586 214.628839,73.462948 211.85189,73.4351191 L145.625345,73.4351191 C142.888286,73.4620204 140.678137,75.6577243 140.648915,78.3747572 L140.648915,78.3747572 Z" id="Fill-4" fill="#F4F4F4"></path>
                        <path d="M176.398874,50.1542566 L54.5878957,50.1542566 C51.4101979,50.1542566 48.7023596,52.7590461 48.7023596,55.9853487 L48.7023596,132.713931 L182.285338,132.713931 L182.285338,55.9848849 C182.284874,52.7590461 179.584921,50.1542566 176.398874,50.1542566" id="Fill-6" fill="#FFFFFF"></path>
                        <path d="M176.398874,50.1542566 L54.5878957,50.1542566 C51.4101979,50.1542566 48.7023596,52.7590461 48.7023596,55.9853487 L48.7023596,132.713931 L182.285338,132.713931 L182.285338,55.9848849 C182.284874,52.7590461 179.584921,50.1542566 176.398874,50.1542566 Z" id="Stroke-8" stroke="#494949" stroke-width="1.29648241"></path>
                        <path d="M115.877714,52.2396187 C116.472808,52.2396187 116.955191,52.7219872 116.955191,53.3170628 C116.955191,53.9121385 116.472808,54.3945069 115.877714,54.3945069 C115.282621,54.3945069 114.800238,53.9121385 114.800238,53.3170628 C114.800238,52.7219872 115.282621,52.2396187 115.877714,52.2396187 Z" id="Stroke-10" stroke="#666E8E" stroke-width="1.29648241"></path>
                        <path d="M189.871692,140.162813 L42.0426451,140.162813 C34.7303685,140.162813 33.3959302,137.80199 33.3959302,136.798293 L33.3959302,133.747313 C33.3959302,133.444905 33.7155089,133.200938 34.1102281,132.74176 L197.804109,132.74176 C198.20022,133.200938 198.519334,133.444905 198.519334,133.747313 L198.519334,136.917957 C198.518407,137.71201 198.293449,140.162813 189.871692,140.162813 Z" id="Stroke-12" stroke="#494949" stroke-width="1.29648241"></path>
                        <mask id="mask-2" fill="white">
                            <use xlink:href="#path-1"></use>
                        </mask>
                        <g id="Clip-15"></g>
                        <polygon id="Fill-14" fill="#C7DEFF" mask="url(#mask-2)" points="56.587234 127.639322 175.32766 127.639322 175.32766 58.0669539 56.587234 58.0669539"></polygon>
                        <polygon id="Stroke-16" stroke="#494949" stroke-width="1.29648241" mask="url(#mask-2)" points="56.587234 127.639322 175.32766 127.639322 175.32766 58.0669539 56.587234 58.0669539"></polygon>
                        <g id="Group-19" mask="url(#mask-2)">
                            <g transform="translate(98.331915, 132.741760)">
                                <path d="M36.178677,0.418547368 L36.178677,1.68105395 C36.178677,2.13652105 35.1336685,2.27381053 34.3414472,2.27381053 L1.88449404,2.27381053 C1.05099191,2.27381053 -4.63829788e-05,2.13652105 -4.63829788e-05,1.68105395 L-4.63829788e-05,0.418547368" id="Fill-17" stroke="none" fill="#C7DEFF" fill-rule="evenodd"></path>
                                <path d="M36.178677,0.418547368 L36.178677,1.68105395 C36.178677,2.13652105 35.1336685,2.27381053 34.3414472,2.27381053 L1.88449404,2.27381053 C1.05099191,2.27381053 -4.63829788e-05,2.13652105 -4.63829788e-05,1.68105395 L-4.63829788e-05,0.418547368" id="Stroke-18" stroke="#494949" stroke-width="1.29648241" fill="none"></path>
                            </g>
                        </g>
                        <path d="M27.6385966,104.478913 L27.6385966,104.478913 C27.2925796,104.478913 26.9614051,104.606462 26.7053711,104.839298 L23.798086,107.475163 C23.5248902,107.720521 23.3625498,108.062354 23.3435328,108.432942 C23.3245157,108.803995 23.4520689,109.161133 23.7016094,109.436176 L26.3361626,112.344301 C26.6005455,112.635113 26.9757838,112.800232 27.3663285,112.800232 C27.7132732,112.800232 28.0453753,112.671755 28.3018732,112.437528 L31.2068391,109.805837 C31.7731753,109.294248 31.817703,108.41439 31.3060987,107.845752 L28.6682987,104.935771 C28.4080902,104.645887 28.0319243,104.478913 27.6385966,104.478913 M27.6385966,105.406544 C27.7647583,105.406544 27.8899923,105.457564 27.9818306,105.55914 L30.6173115,108.466801 C30.787537,108.656038 30.774086,108.947778 30.5848434,109.118926 L27.6766306,111.7534 C27.588503,111.83364 27.4776477,111.873064 27.3672562,111.873064 C27.2415583,111.873064 27.1158604,111.822508 27.024486,111.721396 L24.3890051,108.813271 C24.2187796,108.625426 24.2322306,108.333222 24.4214732,108.162538 L27.329686,105.526673 C27.4178136,105.445969 27.5286689,105.406544 27.6385966,105.406544" id="Fill-20" fill="#F4F4F4" mask="url(#mask-2)"></path>
                        <path d="M16.0077864,87.2348447 C15.4715991,87.2348447 14.96788,87.4440257 14.5893949,87.8238908 C14.2118374,88.2005092 14.0026502,88.7037493 14.0021864,89.2394566 C14.0021864,89.7756276 14.210446,90.2793316 14.5898587,90.6587329 C14.9674162,91.0372066 15.4715991,91.2468513 16.0077864,91.2468513 C16.5439736,91.2468513 17.0476928,91.0376704 17.4266417,90.6582691 C17.8051268,90.2797954 18.0133864,89.7760914 18.0133864,89.2403842 C18.0133864,88.704677 17.804663,88.2014368 17.425714,87.8229632 C17.0472289,87.4444895 16.5435098,87.2348447 16.0077864,87.2348447 M16.0077864,88.1624763 C16.2837651,88.1624763 16.5597438,88.2686901 16.7703226,88.4792625 C17.1910162,88.8990158 17.1910162,89.5817526 16.7703226,90.0024336 C16.5597438,90.2130059 16.2837651,90.3187559 16.0077864,90.3187559 C15.7318077,90.3187559 15.4562928,90.2130059 15.245714,90.0024336 C14.8245566,89.5817526 14.8245566,88.8990158 15.245714,88.4792625 C15.4558289,88.2686901 15.7318077,88.1624763 16.0077864,88.1624763" id="Fill-21" fill="#F4F4F4" mask="url(#mask-2)"></path>
                        <path d="M97.1046213,13.1305322 L99.1932468,18.1740651" id="Stroke-25" stroke="#494949" stroke-width="1.29648241" stroke-linecap="round" stroke-linejoin="round" mask="url(#mask-2)"></path>
                        <path d="M100.242476,20.7066849 L103.719344,29.0994316" id="Stroke-26" stroke="#494949" stroke-width="1.29648241" stroke-linecap="round" stroke-linejoin="round" mask="url(#mask-2)"></path>
                        <path d="M134.57038,13.1305322 L132.48129,18.1740651" id="Stroke-27" stroke="#494949" stroke-width="1.29648241" stroke-linecap="round" stroke-linejoin="round" mask="url(#mask-2)"></path>
                        <path d="M131.432757,20.7066849 L127.955425,29.0994316" id="Stroke-28" stroke="#494949" stroke-width="1.29648241" stroke-linecap="round" stroke-linejoin="round" mask="url(#mask-2)"></path>
                        <path d="M74.1148979,16.1584609 L87.638783,29.6828655" id="Stroke-29" stroke="#494949" stroke-width="1.29648241" stroke-linecap="round" stroke-linejoin="round" mask="url(#mask-2)"></path>
                        <path d="M89.5531013,31.5980072 L94.2484502,36.2913592" id="Stroke-30" stroke="#494949" stroke-width="1.29648241" stroke-linecap="round" stroke-linejoin="round" mask="url(#mask-2)"></path>
                        <path d="M157.341546,16.1584609 L143.817197,29.6828655" id="Stroke-31" stroke="#494949" stroke-width="1.29648241" stroke-linecap="round" stroke-linejoin="round" mask="url(#mask-2)"></path>
                        <path d="M141.902879,31.5980072 L137.20753,36.2913592" id="Stroke-32" stroke="#494949" stroke-width="1.29648241" stroke-linecap="round" stroke-linejoin="round" mask="url(#mask-2)"></path>
                        <path d="M75.9095481,41.0991809 L86.7353353,45.5824243" id="Stroke-33" stroke="#494949" stroke-width="1.29648241" stroke-linecap="round" stroke-linejoin="round" mask="url(#mask-2)"></path>
                        <path d="M70.4848732,38.8519007 L73.3884477,40.054575" id="Stroke-34" stroke="#494949" stroke-width="1.29648241" stroke-linecap="round" stroke-linejoin="round" mask="url(#mask-2)"></path>
                        <path d="M156.075059,41.0991809 L145.248344,45.5824243" id="Stroke-35" stroke="#494949" stroke-width="1.29648241" stroke-linecap="round" stroke-linejoin="round" mask="url(#mask-2)"></path>
                        <path d="M161.499688,38.8519007 L158.596113,40.054575" id="Stroke-36" stroke="#494949" stroke-width="1.29648241" stroke-linecap="round" stroke-linejoin="round" mask="url(#mask-2)"></path>
                        <path d="M19.5596557,49.4483289 L16.6862302,46.5745263" id="Stroke-37" stroke="#F4F4F4" stroke-width="1.29648241" stroke-linecap="round" stroke-linejoin="round" mask="url(#mask-2)"></path>
                        <path d="M16.686323,49.4483289 L19.5597485,46.5745263" id="Stroke-38" stroke="#F4F4F4" stroke-width="1.29648241" stroke-linecap="round" stroke-linejoin="round" mask="url(#mask-2)"></path>
                        <path d="M172.638885,14.6696122 C171.527549,14.6696122 170.48254,15.1028161 169.696812,15.8889839 C168.911549,16.6746878 168.478331,17.7196648 168.478331,18.8309674 C168.478331,19.9422701 168.911549,20.9867832 169.697276,21.772951 C170.48254,22.5586549 171.527085,22.9913951 172.638885,22.9913951 C173.750221,22.9913951 174.794766,22.5586549 175.581421,21.772951 C176.367149,20.987247 176.800366,19.9422701 176.800366,18.8309674 C176.800366,17.7196648 176.367149,16.6746878 175.581421,15.8889839 C174.795229,15.1023523 173.750221,14.6696122 172.638885,14.6696122 M172.638885,15.5972437 C173.466357,15.5972437 174.293829,15.9131023 174.925566,16.5443556 C176.188574,17.807326 176.188574,19.8541451 174.925566,21.1161878 C174.294293,21.7474411 173.466357,22.0632997 172.638885,22.0632997 C171.811876,22.0632997 170.984404,21.7474411 170.353131,21.1161878 C169.090123,19.8536812 169.090123,17.8068622 170.353131,16.5443556 C170.984404,15.9131023 171.811876,15.5972437 172.638885,15.5972437" id="Fill-39" fill="#F4F4F4" mask="url(#mask-2)"></path>
                        <path d="M202.280484,54.1184437 L205.873309,61.303878" id="Stroke-40" stroke="#F4F4F4" stroke-width="1.29648241" stroke-linecap="round" stroke-linejoin="round" mask="url(#mask-2)"></path>
                        <path d="M60.7714426,112.182151 C62.4203574,115.453444 61.0233021,119.457102 57.6503319,121.124056 L46.6589574,126.563223 C43.2859872,128.232033 39.2149532,126.931957 37.5660383,123.662519 L25.6265957,99.9782299 C23.9790723,96.7078648 25.3756638,92.7046707 28.7481702,91.0363253 L39.7404723,85.598549 C43.1129787,83.929276 47.1835489,85.228424 48.8324638,88.4983253 L60.7714426,112.182151 Z" id="Fill-42" fill="#FFFFFF" mask="url(#mask-2)"></path>
                        <path d="M60.7714426,112.182151 C62.4203574,115.453444 61.0233021,119.457102 57.6503319,121.124056 L46.6589574,126.563223 C43.2859872,128.232033 39.2149532,126.931957 37.5660383,123.662519 L25.6265957,99.9782299 C23.9790723,96.7078648 25.3756638,92.7046707 28.7481702,91.0363253 L39.7404723,85.598549 C43.1129787,83.929276 47.1835489,85.228424 48.8324638,88.4983253 L60.7714426,112.182151 Z" id="Stroke-43" stroke="#494949" stroke-width="1.29648241" mask="url(#mask-2)"></path>
                        <path d="M51.7874306,117.989357 C52.3700009,119.154462 51.8968945,120.5691 50.7340732,121.150261 C49.5689328,121.730959 48.1537881,121.259258 47.5726094,120.095544 C46.9918945,118.929975 47.4631455,117.515801 48.6278221,116.935103 C49.7924987,116.353942 51.2067157,116.825643 51.7874306,117.989357 Z" id="Stroke-44" stroke="#494949" stroke-width="1.29648241" mask="url(#mask-2)"></path>
                        <path d="M54.0144166,106.257183 C54.9007953,108.012262 54.1800038,110.14535 52.4053911,111.021498 L41.6927783,116.31039 C39.9172379,117.186074 37.7599655,116.474581 36.873123,114.719965 L28.8488677,98.8324194 C27.9624889,97.0791957 28.6828166,94.9442516 30.4565017,94.0690312 L41.1709698,88.7801398 C42.9446549,87.903528 45.1028549,88.615949 45.9887698,90.3701003 L54.0144166,106.257183 Z" id="Fill-45" fill="#C7DEFF" mask="url(#mask-2)"></path>
                        <path d="M54.0144166,106.257183 C54.9007953,108.012262 54.1800038,110.14535 52.4053911,111.021498 L41.6927783,116.31039 C39.9172379,117.186074 37.7599655,116.474581 36.873123,114.719965 L28.8488677,98.8324194 C27.9624889,97.0791957 28.6828166,94.9442516 30.4565017,94.0690312 L41.1709698,88.7801398 C42.9446549,87.903528 45.1028549,88.615949 45.9887698,90.3701003 L54.0144166,106.257183 Z" id="Stroke-46" stroke="#494949" stroke-width="1.29648241" stroke-linecap="round" stroke-linejoin="round" mask="url(#mask-2)"></path>
                        <path d="M87.4968974,60.6906671 C87.4968974,44.8926375 100.302774,32.0862197 116.100353,32.0862197 C131.897931,32.0862197 144.705663,44.8926375 144.705663,60.6906671 C144.705663,76.4873053 131.897931,89.293723 116.100353,89.293723 C100.302774,89.2932592 87.4968974,76.4873053 87.4968974,60.6906671" id="Fill-47" fill="#3168FD" mask="url(#mask-2)"></path>
                        <path d="M87.4968974,60.6906671 C87.4968974,44.8926375 100.302774,32.0862197 116.100353,32.0862197 C131.897931,32.0862197 144.705663,44.8926375 144.705663,60.6906671 C144.705663,76.4873053 131.897931,89.293723 116.100353,89.293723 C100.302774,89.2932592 87.4968974,76.4873053 87.4968974,60.6906671 Z" id="Stroke-48" stroke="#494949" stroke-width="1.29648241" stroke-linecap="round" stroke-linejoin="round" mask="url(#mask-2)"></path>
                        <path d="M93.1221787,60.6906671 C93.1221787,48.0002033 103.410851,37.7141605 116.10077,37.7141605 C128.791617,37.7141605 139.079362,48.0002033 139.079362,60.6906671 C139.079362,73.3797395 128.791617,83.6671737 116.10077,83.6671737 C103.410851,83.6671737 93.1221787,73.3797395 93.1221787,60.6906671" id="Fill-49" fill="#FFFFFF" mask="url(#mask-2)"></path>
                        <path d="M93.1221787,60.6906671 C93.1221787,48.0002033 103.410851,37.7141605 116.10077,37.7141605 C128.791617,37.7141605 139.079362,48.0002033 139.079362,60.6906671 C139.079362,73.3797395 128.791617,83.6671737 116.10077,83.6671737 C103.410851,83.6671737 93.1221787,73.3797395 93.1221787,60.6906671 Z" id="Stroke-50" stroke="#494949" stroke-width="1.29648241" stroke-linecap="round" stroke-linejoin="round" mask="url(#mask-2)"></path>
                        <polyline id="Stroke-55" stroke="#494949" stroke-width="1.29648241" stroke-linecap="round" stroke-linejoin="round" mask="url(#mask-2)" points="101.331177 54.3627819 116.100446 60.6906207 129.462918 47.5613872"></polyline>
                    </g>
                </g>
            </g>
        </g>
    </g>
</svg>