<?xml version="1.0" encoding="UTF-8" standalone="no"?>
<svg width="238px" height="135px" viewBox="0 0 238 135" version="1.1" xmlns="http://www.w3.org/2000/svg" xmlns:xlink="http://www.w3.org/1999/xlink">
    <!-- Generator: Sketch 43.1 (39012) - http://www.bohemiancoding.com/sketch -->
    <title>Page 1</title>
    <desc>Created with Sketch.</desc>
    <defs></defs>
    <g id="Finale-Grande" stroke="none" stroke-width="1" fill="none" fill-rule="evenodd">
        <g id="Home" transform="translate(-986.000000, -876.000000)">
            <g id="Page-1" transform="translate(987.000000, 876.000000)">
                <path d="M42.3391667,9.91347612 C47.5396588,9.9155806 51.7523098,14.2534351 51.7544128,19.6030172 C51.7544128,23.8829985 48.3813479,27.3532821 44.2233725,27.3532821 C40.8965716,27.3495993 38.1985403,24.5737933 38.2006432,21.1545433 C38.2006432,18.4145134 40.3566499,16.1927112 43.0189318,16.1927112 C45.1481264,16.1927112 46.8740884,17.9678381 46.8719855,20.1622821 C46.8761913,21.9142597 45.495632,23.3353082 43.7896477,23.3305731" id="Stroke-1" stroke="#F7F7F7" stroke-width="2.79328652" stroke-linecap="round" stroke-linejoin="round"></path>
                <path d="M8.45285011,18.6334843 L8.45285011,18.6334843 C7.87560179,18.6334843 7.32306264,18.8486672 6.89617226,19.235891 L1.20622819,24.395544 C0.747268456,24.8090739 0.474941834,25.3814918 0.445501119,26.0028388 C0.415008949,26.6268164 0.627928412,27.2202791 1.04640716,27.6806336 L6.20378971,33.371141 C6.64172036,33.8567493 7.2678613,34.1355925 7.92134004,34.1355925 C8.49911409,34.1355925 9.05112752,33.9225142 9.4780179,33.5337119 L15.1705906,28.3777418 C16.1184765,27.5138537 16.1915526,26.0417716 15.3346174,25.0921261 L10.1725034,19.3979358 C9.73614989,18.9144321 9.10895749,18.6334843 8.45285011,18.6334843 Z" id="Stroke-3" stroke="#F7F7F7" stroke-width="2.79328652" stroke-linecap="round" stroke-linejoin="round"></path>
                <path d="M229.895348,123.272425 C228.604162,123.272425 227.389733,123.774343 226.47707,124.686108 C225.560202,125.601556 225.054453,126.81847 225.054453,128.114828 C225.054453,129.410134 225.559151,130.628101 226.474968,131.544075 C227.38763,132.45847 228.604162,132.960914 229.895348,132.960914 C231.187059,132.960914 232.401489,132.45847 233.316254,131.544601 C234.232596,130.628101 234.736243,129.410134 234.736243,128.114828 C234.736243,126.81847 234.231545,125.601556 233.316254,124.687687 C232.399386,123.774343 231.184956,123.272425 229.895348,123.272425 Z" id="Stroke-5" stroke="#F7F7F7" stroke-width="2.79328652" stroke-linecap="round" stroke-linejoin="round"></path>
                <path d="M191.234904,24.7897127 C190.253371,24.5029776 188.646224,24.5029776 187.664691,24.7897127 C186.682633,25.0775 186.115374,24.5108694 186.402946,23.5301828 C186.690519,22.5494963 186.689993,20.9469366 186.402946,19.9673022 C186.115374,18.9871418 186.682633,18.4205112 187.664691,18.7067201 C188.646224,18.9945075 190.253371,18.9945075 191.234904,18.7067201 C192.218539,18.4205112 192.785799,18.9871418 192.498226,19.9673022 C192.210653,20.9469366 192.210653,22.5494963 192.498226,23.5301828 C192.785799,24.5108694 192.218539,25.0775 191.234904,24.7897127" id="Fill-7" fill="#F0F8FC"></path>
                <path d="M12.0590224,131.023427 L4.31401119,123.272636" id="Stroke-9" stroke="#F7F7F7" stroke-width="2.79328652" stroke-linecap="round" stroke-linejoin="round"></path>
                <path d="M4.31380089,131.023427 L12.0588121,123.272636" id="Stroke-11" stroke="#F7F7F7" stroke-width="2.79328652" stroke-linecap="round" stroke-linejoin="round"></path>
                <path d="M234.736295,19.2107425 C234.772045,22.7809888 231.943633,25.7014776 228.415479,25.7372537 L197.285076,25.7372537 C193.807391,25.7761866 191.000009,28.6167052 190.961631,32.1301306 C190.924304,35.6982724 193.757447,38.6192873 197.285076,38.6582201 L212.108477,38.6582201 C215.584058,38.6939963 218.391966,41.5329366 218.429293,45.0500448 C218.467671,48.6176604 215.634528,51.5376231 212.108477,51.5755037 L147.797861,51.5755037 C144.320177,51.5376231 141.510691,48.6955261 141.474416,45.1826269 C141.438667,41.6144851 144.269707,38.6939963 147.797861,38.6582201 L156.361955,38.6582201 C159.835434,38.6192873 162.645445,35.7787687 162.682772,32.2653433 C162.719047,28.6972015 159.888007,25.7761866 156.361955,25.7372537 L144.244472,25.7372537 C140.767313,25.703056 137.957302,22.8604328 137.921553,19.3454291 C137.885803,15.7783396 140.716318,12.8557463 144.244472,12.8204963 L228.412324,12.8204963 C231.888957,12.8557463 234.698443,15.6978433 234.736295,19.2107425" id="Fill-13" fill="#F4F4F4"></path>
                <path d="M132.10964,76.6733459 C132.159058,81.4931257 128.31021,85.4353384 123.511899,85.4842675 L81.1756242,85.4842675 C76.4482864,85.5363534 72.6267763,89.3712377 72.5757808,94.113678 C72.5263624,98.9313534 76.3767875,102.874618 81.1756242,102.927756 L101.335154,102.927756 C106.060389,102.976159 109.881899,106.807887 109.930792,111.555588 C109.982313,116.371159 106.130311,120.313372 101.335154,120.365984 L13.8736219,120.365984 C9.14418121,120.313372 5.32109396,116.477435 5.2732528,111.7371 C5.22225727,106.918372 9.07478523,102.976159 13.8736219,102.927756 L25.5174251,102.927756 C30.2431857,102.874618 34.0646957,99.039734 34.116217,94.2978198 C34.1651096,89.4806705 30.3146846,85.5363534 25.5174251,85.4842675 L9.04061298,85.4842675 C4.31012081,85.4384951 0.490187919,81.6009802 0.440243848,76.8564354 C0.391876957,72.0408646 4.24125056,68.0954951 9.04061298,68.046566 L123.507694,68.046566 C128.237134,68.0954951 132.058119,71.9314317 132.10964,76.6733459" id="Fill-15" fill="#F4F4F4"></path>
                <path d="M17.8682013,113.426679 C17.8603154,117.161075 20.7297338,120.195206 24.27734,120.203097 L214.802933,120.203097 C218.310584,120.165217 221.145304,117.178963 221.181579,113.491392 C221.216803,109.745948 218.361579,106.676568 214.802933,106.638687 L24.2757629,106.638687 L24.271557,106.638687 C20.7234251,106.651314 17.8566353,109.687023 17.8692528,113.418788 L17.8692528,113.426679 L17.8682013,113.426679 Z" id="Fill-17" fill="#F0F8FC"></path>
                <path d="M17.8682013,44.798928 C17.8603154,48.5327974 20.7297338,51.5674541 24.27734,51.5753459 L214.802933,51.5753459 C218.310584,51.5374653 221.145304,48.5512116 221.181579,44.8641668 C221.216803,41.1181966 218.361579,38.048816 214.802933,38.0109354 L24.2757629,38.0109354 L24.271557,38.0109354 C20.7234251,38.0235623 17.8566353,41.0592713 17.8692528,44.7910362 C17.8682013,44.7910362 17.8682013,44.7968235 17.8682013,44.798928" id="Fill-19" fill="#F4F4F4"></path>
                <path d="M192.137472,132.960914 L41.1039709,132.960914" id="Stroke-21" stroke="#5B5B5B" stroke-width="1.51685393" stroke-linecap="round" stroke-linejoin="round"></path>
                <path d="M73.7452081,11.7813578 C72.8325459,11.5151414 71.3368523,11.5151414 70.422613,11.7813578 C69.5104765,12.0496787 68.9815951,11.5209287 69.2502416,10.6070593 C69.5162595,9.69266381 69.5162595,8.19743246 69.2502416,7.28303694 C68.9815951,6.36916754 69.5104765,5.84041754 70.422613,6.10768619 C71.3358009,6.37495485 72.8314944,6.37495485 73.7452081,6.10768619 C74.6589217,5.84041754 75.1878031,6.36916754 74.9196823,7.28303694 C74.6536644,8.19690634 74.6536644,9.69161157 74.9196823,10.6070593 C75.1888546,11.5209287 74.6589217,12.0496787 73.7452081,11.7813578" id="Fill-23" fill="#F0F8FC"></path>
                <path d="M73.7452081,11.7813578 C72.8325459,11.5151414 71.3368523,11.5151414 70.422613,11.7813578 C69.5104765,12.0496787 68.9815951,11.5209287 69.2502416,10.6070593 C69.5162595,9.69266381 69.5162595,8.19743246 69.2502416,7.28303694 C68.9815951,6.36916754 69.5104765,5.84041754 70.422613,6.10768619 C71.3358009,6.37495485 72.8314944,6.37495485 73.7452081,6.10768619 C74.6589217,5.84041754 75.1878031,6.36916754 74.9196823,7.28303694 C74.6536644,8.19690634 74.6536644,9.69161157 74.9196823,10.6070593 C75.1888546,11.5209287 74.6589217,12.0496787 73.7452081,11.7813578 Z" id="Stroke-25" stroke="#F7F7F7" stroke-width="0.758426966"></path>
                <path d="M150.433068,28.3222362 L82.8082696,28.3222362 C79.0246119,28.3222362 75.9585716,31.4068743 75.9585716,35.2138743 L75.9585716,126.068382 C75.9585716,129.875908 79.0246119,132.960546 82.8082696,132.960546 L150.433068,132.960546 C154.2162,132.960546 157.283818,129.874856 157.283818,126.068382 L157.283818,35.2138743 C157.283818,31.4068743 154.2162,28.3222362 150.433068,28.3222362" id="Fill-29" fill="#FFFFFF"></path>
                <path d="M150.433068,28.3222362 L82.8082696,28.3222362 C79.0246119,28.3222362 75.9585716,31.4068743 75.9585716,35.2138743 L75.9585716,126.068382 C75.9585716,129.875908 79.0246119,132.960546 82.8082696,132.960546 L150.433068,132.960546 C154.2162,132.960546 157.283818,129.874856 157.283818,126.068382 L157.283818,35.2138743 C157.283818,31.4068743 154.2162,28.3222362 150.433068,28.3222362 Z" id="Stroke-31" stroke="#5B5B5B" stroke-width="1.51685393"></path>
                <path d="M151.474744,123.272425 C151.474744,125.412153 149.758245,127.147821 147.637988,127.147821 L85.6021935,127.147821 C83.4840391,127.147821 81.7664888,125.412153 81.7664888,123.272425 L81.7664888,38.0110933 C81.7664888,35.8708396 83.4829877,34.1356978 85.6021935,34.1356978 L147.637988,34.1356978 C149.757194,34.1356978 151.474744,35.8708396 151.474744,38.0110933 L151.474744,123.272425 Z" id="Fill-33" fill="#FFFFFF"></path>
                <path d="M151.474744,123.272425 C151.474744,125.412153 149.758245,127.147821 147.637988,127.147821 L85.6021935,127.147821 C83.4840391,127.147821 81.7664888,125.412153 81.7664888,123.272425 L81.7664888,38.0110933 C81.7664888,35.8708396 83.4829877,34.1356978 85.6021935,34.1356978 L147.637988,34.1356978 C149.757194,34.1356978 151.474744,35.8708396 151.474744,38.0110933 L151.474744,123.272425 Z" id="Stroke-35" stroke="#5B5B5B" stroke-width="1.51685393"></path>
                <path d="M135.016017,21.5399784 L127.271006,21.5399784 L127.271006,21.4226537 C127.271006,15.6006164 122.50161,10.8823776 116.621352,10.8823776 C110.739518,10.8823776 105.971699,15.6016687 105.971699,21.4226537 L105.971699,21.5399784 L98.2261622,21.5399784 C96.0875045,21.5399784 94.3531309,23.2898515 94.3531309,25.4485194 L94.3531309,38.0111985 L138.888522,38.0111985 L138.888522,25.4485194 C138.888522,23.2898515 137.154674,21.5399784 135.016017,21.5399784" id="Fill-37" fill="#FFFFFF"></path>
                <path d="M135.016017,21.5399784 L127.271006,21.5399784 L127.271006,21.4226537 C127.271006,15.6006164 122.50161,10.8823776 116.621352,10.8823776 C110.739518,10.8823776 105.971699,15.6016687 105.971699,21.4226537 L105.971699,21.5399784 L98.2261622,21.5399784 C96.0875045,21.5399784 94.3531309,23.2898515 94.3531309,25.4485194 L94.3531309,38.0111985 L138.888522,38.0111985 L138.888522,25.4485194 C138.888522,23.2898515 137.154674,21.5399784 135.016017,21.5399784 Z" id="Stroke-39" stroke="#5B5B5B" stroke-width="1.51685393"></path>
                <path d="M116.620196,15.7267272 C117.689525,15.7267272 118.556449,16.5942981 118.556449,17.664425 C118.556449,18.7345519 117.689525,19.6021228 116.620196,19.6021228 C115.550867,19.6021228 114.683417,18.7345519 114.683417,17.664425 C114.683417,16.5942981 115.550867,15.7267272 116.620196,15.7267272 Z" id="Stroke-41" stroke="#5B5B5B" stroke-width="1.51685393"></path>
                <path d="M214.404905,0.224724254 C216.009424,0.224724254 217.309021,1.52634366 217.309021,3.13100784 C217.309021,4.73672425 216.009424,6.03781754 214.404905,6.03781754 C212.800912,6.03781754 211.500789,4.73672425 211.500789,3.13100784 C211.500789,1.52634366 212.800912,0.224724254 214.404905,0.224724254" id="Fill-43" fill="#F7F7F7"></path>
                <path d="M109.843258,71.8298907 C109.843258,74.5551892 107.634679,76.766469 104.910361,76.766469 L97.346726,76.766469 C94.6239855,76.766469 92.415406,74.5562414 92.415406,71.8298907 L92.415406,64.2606108 C92.415406,61.5358384 94.622934,59.3250847 97.346726,59.3250847 L104.910361,59.3250847 C107.633628,59.3250847 109.843258,61.5347862 109.843258,64.2606108 L109.843258,71.8298907 Z" id="Stroke-45" stroke="#5B5B5B" stroke-width="1.51685393"></path>
                <polyline id="Stroke-47" stroke="#5B5B5B" stroke-width="1.51685393" stroke-linecap="round" stroke-linejoin="round" points="97.2570895 68.046303 99.8389351 70.9525866 105.002101 65.1400194"></polyline>
                <path d="M114.683628,65.139809 L135.984511,65.139809" id="Stroke-49" stroke="#5B5B5B" stroke-width="1.51685393" stroke-linecap="round"></path>
                <path d="M114.683628,70.9528496 L141.792744,70.9528496" id="Stroke-51" stroke="#5B5B5B" stroke-width="1.51685393" stroke-linecap="round"></path>
                <path d="M109.843258,100.895883 C109.843258,103.621708 107.634679,105.832462 104.910361,105.832462 L97.346726,105.832462 C94.6239855,105.832462 92.415406,103.62276 92.415406,100.895883 L92.415406,93.3271295 C92.415406,90.601831 94.622934,88.3916034 97.346726,88.3916034 L104.910361,88.3916034 C107.633628,88.3916034 109.843258,90.6007787 109.843258,93.3271295 L109.843258,100.895883 Z" id="Stroke-53" stroke="#5B5B5B" stroke-width="1.51685393"></path>
                <polyline id="Stroke-55" stroke="#5B5B5B" stroke-width="1.51685393" stroke-linecap="round" stroke-linejoin="round" points="97.2570895 97.1123481 99.8389351 100.019158 105.002101 94.2060646"></polyline>
                <path d="M114.683628,94.2058541 L141.792744,94.2058541" id="Stroke-57" stroke="#5B5B5B" stroke-width="1.51685393" stroke-linecap="round"></path>
                <path d="M114.683628,100.019368 L132.11148,100.019368" id="Stroke-59" stroke="#5B5B5B" stroke-width="1.51685393" stroke-linecap="round"></path>
                <path d="M234.736295,64.9564037 C234.736295,70.4070007 230.318611,74.8285082 224.871553,74.8285082 L155.529729,74.8285082 C150.08162,74.8285082 145.665512,70.4070007 145.665512,64.9564037 L145.665512,49.8194224 C145.665512,44.3677731 150.08162,39.9488963 155.529729,39.9488963 L224.871553,39.9488963 C230.319662,39.9488963 234.736295,44.3677731 234.736295,49.8194224 L234.736295,64.9564037 Z" id="Fill-61" fill="#C7DEFF"></path>
                <path d="M234.736295,64.9564037 C234.736295,70.4070007 230.318611,74.8285082 224.871553,74.8285082 L155.529729,74.8285082 C150.08162,74.8285082 145.665512,70.4070007 145.665512,64.9564037 L145.665512,49.8194224 C145.665512,44.3677731 150.08162,39.9488963 155.529729,39.9488963 L224.871553,39.9488963 C230.319662,39.9488963 234.736295,44.3677731 234.736295,49.8194224 L234.736295,64.9564037 Z" id="Stroke-63" stroke="#5B5B5B" stroke-width="1.51685393"></path>
                <path d="M163.092629,45.7620422 C169.509128,45.7620422 174.710671,50.9674675 174.710671,57.3887549 C174.710671,63.809516 169.509128,69.0154675 163.092629,69.0154675 C156.67613,69.0154675 151.474586,63.809516 151.474586,57.3887549 C151.474586,50.9674675 156.67613,45.7620422 163.092629,45.7620422" id="Fill-65" fill="#FFFFFF"></path>
                <path d="M163.092629,45.7620422 C169.509128,45.7620422 174.710671,50.9674675 174.710671,57.3887549 C174.710671,63.809516 169.509128,69.0154675 163.092629,69.0154675 C156.67613,69.0154675 151.474586,63.809516 151.474586,57.3887549 C151.474586,50.9674675 156.67613,45.7620422 163.092629,45.7620422 Z" id="Stroke-67" stroke="#5B5B5B" stroke-width="1.51685393"></path>
                <path d="M180.51964,55.450794 L217.309494,55.450794" id="Stroke-69" stroke="#5B5B5B" stroke-width="1.51685393" stroke-linecap="round"></path>
                <path d="M180.51964,61.2643082 L221.182,61.2643082" id="Stroke-71" stroke="#5B5B5B" stroke-width="1.51685393" stroke-linecap="round"></path>
                <g id="Group-76" transform="translate(182.427293, 65.008384)">
                    <path d="M2.75870022,5.75074813 L2.75870022,5.75074813 C1.24933781,5.75074813 0.0264966443,7.00869963 0.0264966443,8.55969963 L0.0264966443,17.691028 L0.0264966443,17.4690056 C0.0264966443,20.7351549 2.60203356,23.3836399 5.78005369,23.3836399 L17.5058702,23.3836399 C20.6844161,23.3836399 23.2615302,20.7351549 23.2615302,17.4690056 L23.2615302,10.9630131 L23.2615302,14.179181 L23.2615302,7.15548694 C23.2615302,5.99171082 22.3425593,5.04732649 21.2101432,5.04732649 C20.0787785,5.04732649 19.1603333,5.99171082 19.1603333,7.15548694 L19.1603333,9.26312127 L19.1603333,10.6668078 L19.1603333,3.64311381 C19.1603333,2.09106157 17.9364407,0.833636194 16.4281298,0.833636194 C14.9166644,0.833636194 13.694349,2.09211381 13.694349,3.64311381 L13.694349,9.26312127 L13.694349,7.15548694 L13.694349,2.47249813 C13.694349,1.17877052 12.4683535,0.131266791 10.9600425,0.131266791 C9.45068009,0.131266791 8.22783893,1.17877052 8.22783893,2.47249813 L8.22783893,7.15548694 L8.22783893,2.47249813 C8.22783893,1.17877052 7.00394631,0.131266791 5.49353244,0.131266791 C3.98259284,0.131266791 2.75975168,1.17877052 2.75975168,2.47249813 L2.75975168,9.26312127" id="Fill-73" fill="#FFFFFF"></path>
                    <path d="M2.75870022,5.75074813 L2.75870022,5.75074813 C1.24933781,5.75074813 0.0264966443,7.00869963 0.0264966443,8.55969963 L0.0264966443,17.691028 L0.0264966443,17.4690056 C0.0264966443,20.7351549 2.60203356,23.3836399 5.78005369,23.3836399 L17.5058702,23.3836399 C20.6844161,23.3836399 23.2615302,20.7351549 23.2615302,17.4690056 L23.2615302,10.9630131 L23.2615302,14.179181 L23.2615302,7.15548694 C23.2615302,5.99171082 22.3425593,5.04732649 21.2101432,5.04732649 C20.0787785,5.04732649 19.1603333,5.99171082 19.1603333,7.15548694 L19.1603333,9.26312127 L19.1603333,10.6668078 L19.1603333,3.64311381 C19.1603333,2.09106157 17.9364407,0.833636194 16.4281298,0.833636194 C14.9166644,0.833636194 13.694349,2.09211381 13.694349,3.64311381 L13.694349,9.26312127 L13.694349,7.15548694 L13.694349,2.47249813 C13.694349,1.17877052 12.4683535,0.131266791 10.9600425,0.131266791 C9.45068009,0.131266791 8.22783893,1.17877052 8.22783893,2.47249813 L8.22783893,7.15548694 L8.22783893,2.47249813 C8.22783893,1.17877052 7.00394631,0.131266791 5.49353244,0.131266791 C3.98259284,0.131266791 2.75975168,1.17877052 2.75975168,2.47249813 L2.75975168,9.26312127" id="Stroke-75" stroke="#5B5B5B" stroke-width="1.51685393" stroke-linecap="round" stroke-linejoin="round"></path>
                </g>
                <path d="M65.3079195,79.0352537 C76.0017338,79.0352537 84.6709732,87.6367799 84.6709732,98.247556 C84.6709732,108.857806 76.0017338,117.458806 65.3079195,117.458806 C54.6135794,117.458806 45.9448658,108.857806 45.9448658,98.247556 C45.9448658,87.6367799 54.6135794,79.0352537 65.3079195,79.0352537" id="Fill-77" fill="#C7DEFF"></path>
                <path d="M65.3079195,79.0352537 C76.0017338,79.0352537 84.6709732,87.6367799 84.6709732,98.247556 C84.6709732,108.857806 76.0017338,117.458806 65.3079195,117.458806 C54.6135794,117.458806 45.9448658,108.857806 45.9448658,98.247556 C45.9448658,87.6367799 54.6135794,79.0352537 65.3079195,79.0352537 Z" id="Stroke-79" stroke="#5B5B5B" stroke-width="1.51685393"></path>
                <path d="M76.1628166,92.3855336 C76.1628166,98.2059925 71.3687114,102.92581 65.4542819,102.92581 C59.5403781,102.92581 54.7462729,98.2059925 54.7462729,92.3855336 L54.7462729,84.3995672 C54.7462729,78.5791082 59.5398523,73.859291 65.4542819,73.859291 C71.36766,73.859291 76.1628166,78.5791082 76.1628166,84.3995672 L76.1628166,92.3855336 Z" id="Fill-81" fill="#FBCE8B"></path>
                <path d="M76.1628166,92.3855336 C76.1628166,98.2059925 71.3687114,102.92581 65.4542819,102.92581 C59.5403781,102.92581 54.7462729,98.2059925 54.7462729,92.3855336 L54.7462729,84.3995672 C54.7462729,78.5791082 59.5398523,73.859291 65.4542819,73.859291 C71.36766,73.859291 76.1628166,78.5791082 76.1628166,84.3995672 L76.1628166,92.3855336 Z" id="Stroke-83" stroke="#5B5B5B" stroke-width="1.51685393"></path>
                <path d="M76.1628166,86.7990925 C77.7831074,86.7990925 79.0963736,88.1022903 79.0963736,89.709059 C79.0963736,91.3168799 77.7831074,92.6195515 76.1628166,92.6195515 C74.5425257,92.6195515 73.2292595,91.3168799 73.2292595,89.709059 C73.2292595,88.1022903 74.5425257,86.7990925 76.1628166,86.7990925" id="Fill-85" fill="#FFEFE9"></path>
                <path d="M76.1628166,86.7990925 C77.7831074,86.7990925 79.0963736,88.1022903 79.0963736,89.709059 C79.0963736,91.3168799 77.7831074,92.6195515 76.1628166,92.6195515 C74.5425257,92.6195515 73.2292595,91.3168799 73.2292595,89.709059 C73.2292595,88.1022903 74.5425257,86.7990925 76.1628166,86.7990925 Z" id="Stroke-87" stroke="#5B5B5B" stroke-width="1.51685393"></path>
                <path d="M54.4529698,86.7990925 C56.0737864,86.7990925 57.3875783,88.1022903 57.3875783,89.709059 C57.3875783,91.3168799 56.0737864,92.6195515 54.4529698,92.6195515 C52.8321532,92.6195515 51.5183613,91.3168799 51.5183613,89.709059 C51.5183613,88.1022903 52.8321532,86.7990925 54.4529698,86.7990925" id="Fill-89" fill="#FFEFE9"></path>
                <path d="M54.4529698,86.7990925 C56.0737864,86.7990925 57.3875783,88.1022903 57.3875783,89.709059 C57.3875783,91.3168799 56.0737864,92.6195515 54.4529698,92.6195515 C52.8321532,92.6195515 51.5183613,91.3168799 51.5183613,89.709059 C51.5183613,88.1022903 52.8321532,86.7990925 54.4529698,86.7990925 Z" id="Stroke-91" stroke="#5B5B5B" stroke-width="1.51685393"></path>
                <path d="M65.3079195,117.458911 C69.6656711,117.458911 73.6869575,116.028919 76.9238591,113.617187 C75.4744295,110.518344 72.3174385,108.362307 68.6452349,108.362307 L61.9695526,108.362307 C58.297349,108.362307 55.1403579,110.518344 53.6909284,113.617187 C56.9267785,116.028919 60.9491163,117.458911 65.3079195,117.458911" id="Fill-93" fill="#3168FD"></path>
                <path d="M65.3079195,117.458911 C69.6656711,117.458911 73.6869575,116.028919 76.9238591,113.617187 C75.4744295,110.518344 72.3174385,108.362307 68.6452349,108.362307 L61.9695526,108.362307 C58.297349,108.362307 55.1403579,110.518344 53.6909284,113.617187 C56.9267785,116.028919 60.9491163,117.458911 65.3079195,117.458911 Z" id="Stroke-95" stroke="#5B5B5B" stroke-width="1.51685393"></path>
                <path d="M68.242528,108.031904 C68.242528,109.687601 66.9297875,111.029206 65.3089709,111.029206 C63.6881544,111.029206 62.3754139,109.687601 62.3754139,108.031904 L62.3754139,102.383486 C62.3754139,100.728314 63.6881544,99.3861836 65.3089709,99.3861836 C66.9297875,99.3861836 68.242528,100.728314 68.242528,102.383486 L68.242528,108.031904 Z" id="Fill-97" fill="#FFEFE9"></path>
                <path d="M68.242528,108.031904 C68.242528,109.687601 66.9297875,111.029206 65.3089709,111.029206 C63.6881544,111.029206 62.3754139,109.687601 62.3754139,108.031904 L62.3754139,102.383486 C62.3754139,100.728314 63.6881544,99.3861836 65.3089709,99.3861836 C66.9297875,99.3861836 68.242528,100.728314 68.242528,102.383486 L68.242528,108.031904 Z" id="Stroke-99" stroke="#5B5B5B" stroke-width="1.51685393"></path>
                <path d="M68.242528,108.031904 C68.242528,109.687601 66.9297875,111.029206 65.3089709,111.029206 C63.6881544,111.029206 62.3754139,109.687601 62.3754139,108.031904 L62.3754139,102.383486 C62.3754139,100.728314 63.6881544,99.3861836 65.3089709,99.3861836 C66.9297875,99.3861836 68.242528,100.728314 68.242528,102.383486 L68.242528,108.031904 Z" id="Stroke-101" stroke="#5B5B5B" stroke-width="1.51685393"></path>
                <path d="M55.6661376,80.5940929 C55.0804776,81.8978168 54.7461152,83.3372795 54.7461152,84.8577646 L54.7461152,95.3359586 C54.7461152,101.123272 59.4745045,105.815205 65.3090235,105.815205 C71.1414396,105.815205 75.8698289,101.12222 75.8698289,95.3359586 L75.8698289,84.8577646 C75.8698289,83.4135668 75.5738445,82.0356601 75.041283,80.784022 C70.2908132,81.5584698 67.4755447,78.7037459 63.3706678,78.7037459 C59.7573456,78.7037459 58.8315403,81.1812422 55.6661376,80.5940929" id="Fill-103" fill="#FFEFE9"></path>
                <path d="M55.6661376,80.5940929 C55.0804776,81.8978168 54.7461152,83.3372795 54.7461152,84.8577646 L54.7461152,95.3359586 C54.7461152,101.123272 59.4745045,105.815205 65.3090235,105.815205 C71.1414396,105.815205 75.8698289,101.12222 75.8698289,95.3359586 L75.8698289,84.8577646 C75.8698289,83.4135668 75.5738445,82.0356601 75.041283,80.784022 C70.2908132,81.5584698 67.4755447,78.7037459 63.3706678,78.7037459 C59.7573456,78.7037459 58.8315403,81.1812422 55.6661376,80.5940929 Z" id="Stroke-105" stroke="#5B5B5B" stroke-width="1.51685393"></path>
                <path d="M61.2011499,89.6871198 C61.8488456,89.6871198 62.374047,90.2074519 62.374047,90.8498437 C62.374047,91.4922354 61.8488456,92.0125675 61.2011499,92.0125675 C60.5529284,92.0125675 60.0277271,91.4922354 60.0277271,90.8498437 C60.0277271,90.2074519 60.5529284,89.6871198 61.2011499,89.6871198" id="Fill-107" fill="#494949"></path>
                <path d="M61.2011499,89.6871198 C61.8488456,89.6871198 62.374047,90.2074519 62.374047,90.8498437 C62.374047,91.4922354 61.8488456,92.0125675 61.2011499,92.0125675 C60.5529284,92.0125675 60.0277271,91.4922354 60.0277271,90.8498437 C60.0277271,90.2074519 60.5529284,89.6871198 61.2011499,89.6871198 Z" id="Stroke-109" stroke="#5B5B5B" stroke-width="1.51685393"></path>
                <path d="M69.4156353,89.6871198 C70.0633311,89.6871198 70.5890582,90.2074519 70.5890582,90.8498437 C70.5890582,91.4922354 70.0633311,92.0125675 69.4156353,92.0125675 C68.7679396,92.0125675 68.2427383,91.4922354 68.2427383,90.8498437 C68.2427383,90.2074519 68.7679396,89.6871198 69.4156353,89.6871198" id="Fill-111" fill="#494949"></path>
                <path d="M69.4156353,89.6871198 C70.0633311,89.6871198 70.5890582,90.2074519 70.5890582,90.8498437 C70.5890582,91.4922354 70.0633311,92.0125675 69.4156353,92.0125675 C68.7679396,92.0125675 68.2427383,91.4922354 68.2427383,90.8498437 C68.2427383,90.2074519 68.7679396,89.6871198 69.4156353,89.6871198 Z" id="Stroke-113" stroke="#5B5B5B" stroke-width="1.51685393"></path>
                <g id="Group-118" transform="translate(58.881432, 86.579280)">
                    <path d="M0.0736017897,0.898033209 C0.989418345,-0.0116272388 2.47407159,-0.0116272388 3.39199105,0.898033209" id="Fill-115" fill="#FFFFFF"></path>
                    <path d="M0.0736017897,0.898033209 C0.989418345,-0.0116272388 2.47407159,-0.0116272388 3.39199105,0.898033209" id="Stroke-117" stroke="#5B5B5B" stroke-width="1.51685393" stroke-linecap="round" stroke-linejoin="round"></path>
                </g>
                <g id="Group-122" transform="translate(67.818792, 86.579280)">
                    <path d="M0.523308725,0.898033209 C1.43912528,-0.0116272388 2.92430425,-0.0116272388 3.84274944,0.898033209" id="Fill-119" fill="#FFFFFF"></path>
                    <path d="M0.523308725,0.898033209 C1.43912528,-0.0116272388 2.92430425,-0.0116272388 3.84274944,0.898033209" id="Stroke-121" stroke="#5B5B5B" stroke-width="1.51685393" stroke-linecap="round" stroke-linejoin="round"></path>
                </g>
                <path d="M61.2909966,98.8797937 C63.5111421,101.081603 67.1050123,101.081603 69.324632,98.8797937" id="Stroke-123" stroke="#5B5B5B" stroke-width="1.51685393" stroke-linecap="round" stroke-linejoin="round"></path>
                <path d="M55.6661376,80.5940929 C55.0804776,81.8978168 54.7461152,83.3372795 54.7461152,84.8577646 L54.7461152,95.3359586 C54.7461152,101.123272 59.4745045,105.815205 65.3090235,105.815205 C71.1414396,105.815205 75.8698289,101.12222 75.8698289,95.3359586 L75.8698289,84.8577646 C75.8698289,83.4135668 75.5738445,82.0356601 75.041283,80.784022" id="Stroke-125" stroke="#5B5B5B" stroke-width="1.51685393"></path>
            </g>
        </g>
    </g>
</svg>