<?xml version="1.0" encoding="UTF-8" standalone="no"?>
<svg width="229px" height="145px" viewBox="0 0 229 145" version="1.1" xmlns="http://www.w3.org/2000/svg" xmlns:xlink="http://www.w3.org/1999/xlink">
    <!-- Generator: Sketch 43.1 (39012) - http://www.bohemiancoding.com/sketch -->
    <title>Page 1</title>
    <desc>Created with Sketch.</desc>
    <defs>
        <polygon id="path-1" points="93.9469774 37.9990044 93.9469774 0.449059044 0.0255547861 0.449059044 0.0255547861 37.9990044 93.9469774 37.9990044"></polygon>
    </defs>
    <g id="Finale-Grande" stroke="none" stroke-width="1" fill="none" fill-rule="evenodd">
        <g id="Home" transform="translate(-605.000000, -870.000000)">
            <g id="Page-1" transform="translate(606.000000, 871.000000)">
                <path d="M4.46628769,80.2449137 C9.51037482,80.2468659 13.5978921,84.4495041 13.5998453,89.6336201 C13.5998453,93.779644 10.3277806,97.1428283 6.2934875,97.1428283 C3.06683428,97.1389239 0.448596597,94.4492549 0.450549777,91.1363403 C0.450549777,88.4818113 2.54289376,86.3294904 5.12548591,86.3294904 C7.19048537,86.3294904 8.86533715,88.0489068 8.86338397,90.1753608 C8.86729033,91.8723266 7.52789721,93.2496167 5.87306552,93.2452242" id="Stroke-1" stroke="#F7F7F7" stroke-width="2.52268389" stroke-linecap="round" stroke-linejoin="round"></path>
                <path d="M34.5212343,0.450816041 L34.5212343,0.450816041 C33.9616482,0.450816041 33.4240355,0.659215358 33.009473,1.03501741 L27.4902749,6.0336727 C27.0454382,6.43436553 26.7817589,6.98928362 26.7529495,7.59105495 C26.7236518,8.19575461 26.9302005,8.77117099 27.3359737,9.21676485 L32.3380674,14.7303177 C32.7633724,15.1998263 33.3717879,15.4697205 34.0051065,15.4697205 C34.5651808,15.4697205 35.1008404,15.2637614 35.5144263,14.8869833 L41.0385074,9.89076826 C41.9574785,9.05473072 42.0273047,7.62765904 41.1962267,6.70767611 L36.1882733,1.19070683 C35.7663865,0.723150512 35.1579709,0.450816041 34.5212343,0.450816041 Z" id="Stroke-3" stroke="#F7F7F7" stroke-width="2.52268389" stroke-linecap="round" stroke-linejoin="round"></path>
                <path d="M212.05274,30.5529017 C210.741668,30.5529017 209.50677,31.0614546 208.577056,31.98583 C207.645389,32.9141099 207.131214,34.1484 207.131214,35.4617549 C207.131214,36.7741338 207.643436,38.0094 208.575103,38.9381679 C209.504816,39.8644956 210.740203,40.3745126 212.05274,40.3745126 C213.365765,40.3745126 214.603104,39.8644956 215.532818,38.939144 C216.464485,38.0094 216.976218,36.7741338 216.976218,35.4617549 C216.976218,34.1484 216.462531,32.9141099 215.532818,31.9872942 C214.601151,31.0614546 213.365765,30.5529017 212.05274,30.5529017 Z" id="Stroke-5" stroke="#F7F7F7" stroke-width="2.52268389" stroke-linecap="round" stroke-linejoin="round"></path>
                <path d="M185.539836,30.8233816 C184.587172,30.5456785 183.028047,30.5456785 182.075871,30.8233816 C181.123208,31.1020608 180.572899,30.5529993 180.851716,29.6032451 C181.131021,28.6530027 181.131021,27.100501 180.851716,26.1512348 C180.572899,25.2009925 181.123208,24.6519311 182.075871,24.9296341 C183.028047,25.2088014 184.587172,25.2088014 185.539836,24.9296341 C186.493964,24.6519311 187.044273,25.2009925 186.765456,26.1512348 C186.486152,27.100501 186.486152,28.6530027 186.765456,29.6032451 C187.044273,30.5529993 186.493964,31.1020608 185.539836,30.8233816" id="Fill-7" fill="#F7F7F7"></path>
                <path d="M146.028471,20.5439754 L138.108815,12.6545727" id="Stroke-9" stroke="#F7F7F7" stroke-width="2.52268389" stroke-linecap="round" stroke-linejoin="round"></path>
                <path d="M138.108912,20.5439754 L146.028569,12.6545727" id="Stroke-11" stroke="#F7F7F7" stroke-width="2.52268389" stroke-linecap="round" stroke-linejoin="round"></path>
                <path d="M23.4607182,127.18298 C22.3327568,127.18298 21.2707152,127.621741 20.472353,128.418246 C19.6739907,129.216215 19.2345252,130.277246 19.2345252,131.407092 C19.2345252,132.537427 19.6749673,133.598458 20.472353,134.395939 C21.2707152,135.192932 22.3317802,135.631693 23.4607182,135.631693 C24.5901445,135.631693 25.6507212,135.192444 26.4476186,134.395939 C27.2498873,133.598458 27.6873996,132.537427 27.6873996,131.407092 C27.6873996,130.277246 27.2489107,129.216215 26.4476186,128.418246 C25.6516978,127.621741 24.5901445,127.18298 23.4607182,127.18298 Z" id="Stroke-13" stroke="#F7F7F7" stroke-width="2.52268389" stroke-linecap="round" stroke-linejoin="round"></path>
                <g id="Group-17" transform="translate(133.792824, 55.388341)">
                    <mask id="mask-2" fill="white">
                        <use xlink:href="#path-1"></use>
                    </mask>
                    <g id="Clip-16"></g>
                    <path d="M0.0258796339,6.64100785 C-0.00878930963,10.1003389 2.73591677,12.9295915 6.15837628,12.9647314 L36.3574676,12.9647314 C39.7310976,13.0023116 42.4552953,15.7544515 42.4919174,19.1586324 C42.5285395,22.6160113 39.7804154,25.4462399 36.3574676,25.4838201 L21.9771804,25.4838201 C18.6055036,25.518472 15.8817942,28.2691478 15.8451721,31.6767451 C15.80855,35.1331478 18.5566741,37.9624003 21.9771804,37.9990044 L84.3661416,37.9990044 C87.7397716,37.9624003 90.4668991,35.2092843 90.4996149,31.8055915 C90.536237,28.3477246 87.7881128,25.518472 84.3661416,25.4838201 L76.0592674,25.4838201 C72.6875906,25.4462399 69.9624163,22.6936119 69.9253059,19.2899191 C69.890637,15.8325403 72.6368079,13.0023116 76.0592674,12.9647314 L87.8144808,12.9647314 C91.1881108,12.9315437 93.9137733,10.1774515 93.9469774,6.77180648 C93.9835995,3.31540375 91.2374286,0.483710922 87.8144808,0.449059044 L6.16081775,0.449059044 C2.78816433,0.483710922 0.0625017573,3.23731502 0.0258796339,6.64100785" id="Fill-15" fill="#F4F4F4" mask="url(#mask-2)"></path>
                </g>
                <path d="M0.449817335,32.2785164 C0.401964427,36.9487109 4.13546784,40.7687143 8.79136046,40.8155676 L49.8618512,40.8155676 C54.4484059,40.8663253 58.1555414,44.581885 58.2053475,49.1769191 C58.2532004,53.8446734 54.5182321,57.6651648 49.8618512,57.7168986 L30.3061255,57.7168986 C25.721524,57.7637519 22.0143885,61.4763833 21.9665356,66.076298 C21.9167295,70.7421 25.653651,74.5616154 30.3061255,74.6128611 L115.151773,74.6128611 C119.740281,74.5616154 123.449369,70.8455676 123.494781,66.2519976 C123.544587,61.5832672 119.807177,57.7637519 115.151773,57.7168986 L103.856045,57.7168986 C99.2714435,57.6651648 95.564308,53.9496051 95.5145019,49.3555471 C95.4671373,44.6877928 99.2021056,40.8663253 103.856045,40.8155676 L119.840381,40.8155676 C124.430354,40.7711546 128.135536,37.0531546 128.183389,32.4556802 C128.231242,27.7903662 124.496274,23.9679225 119.840381,23.9200932 L8.79526682,23.9200932 C4.2067589,23.9679225 0.500111718,27.6839703 0.449817335,32.2785164" id="Fill-18" fill="#F4F4F4"></path>
                <path d="M26.7481153,114.046014 C26.7403026,117.663963 29.5250489,120.604492 32.9665519,120.611325 L217.796944,120.611325 C221.199872,120.57472 223.949461,117.681533 223.984618,114.108973 C224.019287,110.479311 221.249678,107.505594 217.796944,107.46899 L32.9636221,107.46899 L32.9602041,107.46899 C29.5187011,107.481191 26.7378612,110.422209 26.7490919,114.038205 C26.7481153,114.038205 26.7481153,114.044062 26.7481153,114.046014" id="Fill-20" fill="#F4F4F4"></path>
                <polygon id="Fill-22" fill="#C7DEFF" points="186.35524 108.514891 112.213507 113.110901 109.914614 76.0592597 184.056835 71.4637375"></polygon>
                <polygon id="Stroke-24" stroke="#5B5B5B" stroke-width="1.41773917" points="186.35524 108.514891 112.213507 113.110901 109.914614 76.0592597 184.056835 71.4637375"></polygon>
                <polygon id="Stroke-26" stroke="#FFFFFF" stroke-width="2.46366607" stroke-linejoin="round" points="113.803835 79.4923334 180.622119 75.3511901 182.465921 105.082013 115.648125 109.223644"></polygon>
                <path d="M157.40467,91.6631952 C157.823139,98.3939563 153.970003,104.109076 148.798471,104.430216 C143.625474,104.75038 139.095561,99.5550382 138.677092,92.8242771 C138.260577,86.0944922 142.113224,80.3769324 147.286221,80.0572567 C152.456288,79.7366048 156.987666,84.9319461 157.40467,91.6631952" id="Fill-28" fill="#FFFFFF"></path>
                <path d="M148.144741,97.1914386 C147.260439,97.1582509 146.578779,97.0157389 146.10025,96.7629266 C145.621233,96.5101143 145.370738,96.2084966 145.348764,95.8575853 C145.331186,95.5759778 145.409313,95.3402474 145.583146,95.148442 C145.756491,94.9566365 146.009916,94.8507287 146.34391,94.8297423 C146.484539,94.8214454 146.639816,94.836087 146.810231,94.8736672 C146.97967,94.9117355 147.161315,94.9556604 147.353704,95.005442 C147.54658,95.0552235 147.751664,95.0971962 147.970908,95.1323362 C148.189176,95.1679642 148.41721,95.1777253 148.654033,95.1625956 C148.952381,95.1445375 149.197994,95.0386297 149.388917,94.8458481 C149.579352,94.6535546 149.666757,94.4168481 149.649178,94.1357287 C149.637948,93.951244 149.590095,93.7945785 149.508061,93.6676843 C149.424563,93.5412782 149.310302,93.4334181 149.163325,93.3450802 C149.016348,93.2572304 148.840074,93.1849983 148.633525,93.1269198 C148.426976,93.0693294 148.194059,93.0088106 147.934286,92.9458515 C147.477731,92.8418959 147.077329,92.7208584 146.733569,92.583715 C146.389809,92.4460836 146.101715,92.2811212 145.869287,92.0883396 C145.636858,91.895558 145.459607,91.6661724 145.337045,91.4006706 C145.214972,91.1341928 145.142704,90.8169573 145.119754,90.4484761 C145.074831,89.7281075 145.264289,89.0897321 145.688618,88.534814 C146.112946,87.9789198 146.728686,87.5928686 147.535838,87.3751962 L147.494821,86.7163225 C147.465035,86.2414454 147.626172,85.9940017 147.977256,85.9725273 C148.188688,85.9588618 148.332735,86.0076672 148.410374,86.1174795 C148.487525,86.2272918 148.533913,86.4044556 148.549538,86.6504352 L148.587137,87.257087 C149.337158,87.2727048 149.919205,87.3942304 150.329862,87.6216638 C150.741006,87.8490973 150.958297,88.1443703 150.980759,88.5065068 C150.998337,88.7900666 150.928023,89.0184761 150.771768,89.1907594 C150.614537,89.3645068 150.382109,89.4596775 150.074483,89.4791997 C149.943132,89.4874966 149.807874,89.4787116 149.669687,89.4518686 C149.531011,89.4255137 149.389894,89.3962304 149.246823,89.3654829 C149.104241,89.3342474 148.959218,89.3064283 148.811752,89.2800734 C148.664776,89.2537184 148.520729,89.2454215 148.379611,89.2537184 C148.046106,89.2742167 147.793169,89.3679232 147.623242,89.5319096 C147.452339,89.696872 147.374212,89.89307 147.388373,90.1209915 C147.399115,90.2874181 147.44648,90.420657 147.53242,90.5216843 C147.61836,90.6222235 147.735062,90.7027526 147.884969,90.7632713 C148.03341,90.8247662 148.216521,90.8813805 148.431371,90.9350666 C148.64622,90.9872884 148.888415,91.0487833 149.157465,91.1205273 C150.054463,91.3552816 150.727822,91.6837423 151.177542,92.1044454 C151.627261,92.5256365 151.87385,93.0912918 151.918285,93.8018993 C151.9427,94.2050324 151.896312,94.5886433 151.777656,94.9527321 C151.659,95.3168208 151.481261,95.6443055 151.243461,95.9366502 C151.005173,96.2285068 150.71415,96.4730222 150.368925,96.6711724 C150.024189,96.8688345 149.633065,97.0064659 149.196529,97.0865068 L149.251218,97.9562201 C149.280516,98.4393942 149.119867,98.6917184 148.768294,98.7136809 C148.56614,98.7263703 148.424046,98.6780529 148.342501,98.5682406 C148.260956,98.4589164 148.212614,98.276384 148.196501,98.0216195 L148.144741,97.1914386 Z" id="Fill-30" fill="#3168FD"></path>
                <path d="M130.240918,93.1158898 C130.337112,94.6718078 129.152997,96.0105416 127.594359,96.1066884 C126.037675,96.2047874 124.697305,95.0212549 124.600622,93.4643608 C124.50394,91.9084427 125.687079,90.5687328 127.245228,90.472098 C128.804842,90.3759512 130.143747,91.5589956 130.240918,93.1158898" id="Fill-32" fill="#FFFFFF"></path>
                <path d="M172.261435,90.463557 C172.358606,92.0199631 171.174979,93.3606491 169.617318,93.4567959 C168.060145,93.5539188 166.718799,92.3703863 166.622605,90.8134922 C166.525434,89.2575741 167.709549,87.9188403 169.264769,87.8226935 C170.826825,87.7245945 172.165241,88.9091031 172.261435,90.463557" id="Fill-34" fill="#FFFFFF"></path>
                <polygon id="Fill-36" fill="#C7DEFF" points="145.203985 30.4778389 117.432696 99.3413679 82.9839738 85.4630471 110.756727 16.59903"></polygon>
                <polygon id="Stroke-38" stroke="#5B5B5B" stroke-width="1.41773917" points="145.203985 30.4778389 117.432696 99.3413679 82.9839738 85.4630471 110.756727 16.59903"></polygon>
                <polygon id="Stroke-40" stroke="#FFFFFF" stroke-width="2.46366607" stroke-linejoin="round" points="87.7587663 83.4324959 112.788279 21.371472 140.429193 32.5083901 115.401145 94.5689259"></polygon>
                <path d="M114.989757,49.5158242 C119.964018,51.5197765 122.748275,56.2387765 121.208193,60.0563396 C119.668599,63.8748788 114.387689,65.3453874 109.413428,63.3414352 C104.440632,61.3374829 101.656374,56.618971 103.196945,52.7989676 C104.73605,48.9818925 110.015984,47.511384 114.989757,49.5158242" id="Fill-42" fill="#FFFFFF"></path>
                <path d="M119.006276,60.6381007 L117.420294,59.9992372 C117.03747,60.9031143 116.374854,61.7308549 115.761067,62.1217867 L114.860651,61.3213771 C115.465161,60.9079949 116.09262,60.212029 116.44761,59.3335307 C116.896841,58.218814 116.556988,57.2065887 115.661943,56.8459164 C114.798638,56.4979334 114.017366,56.8947218 113.077886,57.8664386 C111.803925,59.2144454 110.683288,59.9123635 109.31655,59.3613498 C108.014267,58.8362031 107.398039,57.5121109 107.745217,55.9727867 L106.158747,55.3339232 L106.551824,54.3612304 L108.074328,54.974715 C108.48596,54.0459471 108.996717,53.5037184 109.446925,53.1557355 L110.324879,53.9659061 C110.003581,54.2192065 109.398095,54.7233669 108.993299,55.7282713 C108.505981,56.9366945 109.045058,57.68293 109.673006,57.9357423 C110.489435,58.2646911 111.132031,57.8488686 112.247785,56.7107253 C113.559345,55.3602782 114.704885,54.8727116 116.103362,55.4364147 C117.343143,55.9356945 118.157131,57.2671075 117.772354,58.9909164 L119.405213,59.649302 L119.006276,60.6381007 Z" id="Fill-44" fill="#000000"></path>
                <path d="M119.006276,60.6381007 L117.420294,59.9992372 C117.03747,60.9031143 116.374854,61.7308549 115.761067,62.1217867 L114.860651,61.3213771 C115.465161,60.9079949 116.09262,60.212029 116.44761,59.3335307 C116.896841,58.218814 116.556988,57.2065887 115.661943,56.8459164 C114.798638,56.4979334 114.017366,56.8947218 113.077886,57.8664386 C111.803925,59.2144454 110.683288,59.9123635 109.31655,59.3613498 C108.014267,58.8362031 107.398039,57.5121109 107.745217,55.9727867 L106.158747,55.3339232 L106.551824,54.3612304 L108.074328,54.974715 C108.48596,54.0459471 108.996717,53.5037184 109.446925,53.1557355 L110.324879,53.9659061 C110.003581,54.2192065 109.398095,54.7233669 108.993299,55.7282713 C108.505981,56.9366945 109.045058,57.68293 109.673006,57.9357423 C110.489435,58.2646911 111.132031,57.8488686 112.247785,56.7107253 C113.559345,55.3602782 114.704885,54.8727116 116.103362,55.4364147 C117.343143,55.9356945 118.157131,57.2671075 117.772354,58.9909164 L119.405213,59.649302 L119.006276,60.6381007 Z" id="Stroke-46" stroke="#5B5B5B" stroke-width="1.41773917"></path>
                <path d="M106.158991,74.8167215 C107.605809,75.3999468 108.305535,77.0437147 107.721535,78.4907966 C107.13851,79.9369024 105.494421,80.6372608 104.046138,80.0540355 C102.599809,79.4717863 101.899594,77.8265543 102.482618,76.3809365 C103.06613,74.9319024 104.712173,74.2334962 106.158991,74.8167215 Z" id="Stroke-48" stroke="#5B5B5B" stroke-width="1.41773917"></path>
                <path d="M122.173552,35.1048406 C123.621835,35.6875778 124.320585,37.3318338 123.737073,38.7794038 C123.155025,40.2259976 121.508495,40.926356 120.061188,40.3421546 C118.614858,39.7603935 117.915132,38.1146734 118.499133,36.6710078 C119.082157,35.2205096 120.727223,34.5221034 122.173552,35.1048406" id="Fill-50" fill="#FFFFFF"></path>
                <polygon id="Fill-52" fill="#C7DEFF" points="158.190532 52.858559 105.121657 104.811484 79.1331332 78.2920608 132.201031 26.3376717"></polygon>
                <polygon id="Stroke-54" stroke="#5B5B5B" stroke-width="1.41773917" points="158.190532 52.858559 105.121657 104.811484 79.1331332 78.2920608 132.201031 26.3376717"></polygon>
                <polygon id="Stroke-56" stroke="#FFFFFF" stroke-width="2.46366607" stroke-linejoin="round" points="84.3216091 78.3460396 132.147173 31.5235447 153.001763 52.8046778 105.175711 99.6257085"></polygon>
                <path d="M125.240142,59.2008775 C130.104049,64.1639048 130.955635,71.2133655 127.14254,74.9464952 C123.328956,78.680113 116.295067,77.6825294 111.430672,72.719502 C106.568231,67.7569628 105.716156,60.7079901 109.530228,56.9743724 C113.342835,53.2417307 120.376724,54.2373621 125.240142,59.2008775" id="Fill-58" fill="#FFFFFF"></path>
                <path d="M121.617042,69.6459294 C120.926105,70.1988952 120.31769,70.536141 119.789843,70.6586427 C119.262972,70.7806563 118.875754,70.7162331 118.629166,70.464885 C118.432383,70.2633184 118.3357,70.0339328 118.34156,69.7757519 C118.348396,69.5170829 118.469981,69.2706154 118.709246,69.0373253 C118.809835,68.9387382 118.936791,68.847472 119.090604,68.7654788 C119.243441,68.6829976 119.409461,68.5980761 119.588177,68.5092502 C119.766405,68.4209123 119.949515,68.3184208 120.137997,68.2022638 C120.325502,68.0861068 120.504707,67.944571 120.674145,67.7781444 C120.888506,67.569257 121.004232,67.3286461 121.022299,67.0582638 C121.040854,66.7878816 120.951985,66.5521512 120.754225,66.3505846 C120.624827,66.2183218 120.487616,66.1319362 120.342104,66.0899635 C120.196104,66.0479908 120.038873,66.0416461 119.870411,66.0709294 C119.70195,66.1002126 119.520304,66.1602433 119.326451,66.2519976 C119.132598,66.3432638 118.916771,66.4501478 118.678483,66.5721614 C118.265386,66.791786 117.883539,66.9626051 117.534408,67.0826666 C117.184301,67.2037041 116.85812,67.2676392 116.555865,67.273984 C116.25361,67.2798406 115.969423,67.2222502 115.702814,67.1012126 C115.436693,66.9806631 115.17399,66.7878816 114.915194,66.523844 C114.409809,66.0079703 114.135875,65.4018065 114.092905,64.7043765 C114.050424,64.0064584 114.26332,63.3114686 114.731107,62.6194072 L114.26918,62.1479464 C113.936651,61.8082604 113.895634,61.5154276 114.147594,61.268472 C114.298477,61.1210795 114.440083,61.0639771 114.569481,61.0957007 C114.699856,61.1284003 114.852204,61.2333321 115.024084,61.4085437 L115.449389,61.8424242 C116.027042,61.3636427 116.546099,61.0752024 117.006073,60.9785676 C117.466047,60.8819328 117.823479,60.9639259 118.077392,61.2230829 C118.27564,61.4256256 118.372322,61.643786 118.367439,61.8775642 C118.36158,62.1108543 118.249272,62.3353594 118.028563,62.5510795 C117.93481,62.6428338 117.826897,62.724827 117.704335,62.7951068 C117.582749,62.8658747 117.456281,62.9356666 117.328348,63.0059464 C117.200414,63.0767143 117.071505,63.1489464 116.943571,63.225571 C116.81515,63.3021956 116.699912,63.3900454 116.599323,63.4876563 C116.360059,63.7219225 116.230661,63.9576529 116.209176,64.1933833 C116.188179,64.4296017 116.257029,64.629216 116.417678,64.7927143 C116.53438,64.9117997 116.657919,64.9811034 116.787805,65.0011137 C116.919157,65.0211239 117.060274,65.0055061 117.21311,64.9537724 C117.366435,64.9025266 117.541733,64.8263901 117.739004,64.7263389 C117.936275,64.6253116 118.158937,64.5140352 118.409433,64.3915334 C119.240999,63.9825437 119.965629,63.7907382 120.581369,63.815141 C121.197109,63.8400317 121.753765,64.1065096 122.251826,64.6150625 C122.535525,64.9039908 122.750375,65.2241546 122.899305,65.5770181 C123.047747,65.9303696 123.128315,66.2949464 123.13857,66.6707485 C123.150777,67.0475266 123.090228,67.4228406 122.958389,67.7981546 C122.827037,68.1729805 122.621465,68.5331648 122.344114,68.8787075 L122.953994,69.5009771 C123.293359,69.8470078 123.336329,70.143257 123.084857,70.3887485 C122.940322,70.5307724 122.801158,70.5873867 122.667853,70.5581034 C122.53406,70.5283321 122.378294,70.4229123 122.19909,70.2398918 L121.617042,69.6459294 Z" id="Fill-60" fill="#3168FD"></path>
                <path d="M104.634485,77.8265543 C105.725336,78.9407829 105.706292,80.7270628 104.59005,81.818841 C103.477226,82.9111072 101.68909,82.892073 100.596285,81.7783324 C99.5054345,80.6641038 99.5239897,78.8778239 100.637791,77.7855577 C101.754521,76.6937795 103.542169,76.7123256 104.634485,77.8265543 Z" id="Stroke-62" stroke="#5B5B5B" stroke-width="1.41773917"></path>
                <path d="M135.969302,47.8657604 C137.061617,48.9804771 137.044039,50.766757 135.928773,51.8585352 C134.814972,52.9503133 133.024883,52.9317672 131.933544,51.8175386 C130.841716,50.704286 130.860759,48.9175181 131.97456,47.8272041 C133.091291,46.7324976 134.879427,46.753484 135.969302,47.8657604" id="Fill-64" fill="#FFFFFF"></path>
                <path d="M70.2607157,126.871747 C70.2607157,126.871747 73.4570947,125.068386 75.3980672,123.903399 C85.508703,117.832976 89.2929891,118.350802 94.8785954,111.618089 C101.704471,103.391928 108.684648,79.9911741 112.688666,72.1852287 C116.452444,64.8448874 111.453768,63.0561672 111.453768,63.0561672 C111.453768,63.0561672 107.258826,60.712041 103.679624,67.3730102 C99.322568,75.4835017 99.0271495,77.0316109 94.8126756,81.2069181 C90.5986899,85.3822253 83.7562124,81.8594471 84.9559531,79.9204061 C86.1556939,77.9808771 95.4113252,53.9280819 95.4113252,53.9280819 C95.4113252,53.9280819 83.331884,56.0013379 79.491444,67.3730102 C72.8262175,87.1094505 68.3837098,98.2107406 68.3837098,98.2107406 C68.3837098,98.2107406 68.2601712,100.060956 63.07692,103.021983 L56.2119809,107.531608 L70.2607157,126.871747 Z" id="Fill-66" fill="#FFFFFF"></path>
                <path d="M70.2607157,126.871747 C70.2607157,126.871747 73.4570947,125.068386 75.3980672,123.903399 C85.508703,117.832976 89.2929891,118.350802 94.8785954,111.618089 C101.704471,103.391928 108.684648,79.9911741 112.688666,72.1852287 C116.452444,64.8448874 111.453768,63.0561672 111.453768,63.0561672 C111.453768,63.0561672 107.258826,60.712041 103.679624,67.3730102 C99.322568,75.4835017 99.0271495,77.0316109 94.8126756,81.2069181 C90.5986899,85.3822253 83.7562124,81.8594471 84.9559531,79.9204061 C86.1556939,77.9808771 95.4113252,53.9280819 95.4113252,53.9280819 C95.4113252,53.9280819 83.331884,56.0013379 79.491444,67.3730102 C72.8262175,87.1094505 68.3837098,98.2107406 68.3837098,98.2107406 C68.3837098,98.2107406 68.2601712,100.060956 63.07692,103.021983 L56.2119809,107.531608 L70.2607157,126.871747 Z" id="Stroke-68" stroke="#5B5B5B" stroke-width="1.41773917" stroke-linejoin="round"></path>
                <polygon id="Fill-70" fill="#3168FD" points="75.1379525 130.446845 57.2390117 105.239313 38.4294008 116.807671 56.3864487 142.710681"></polygon>
                <polygon id="Stroke-72" stroke="#5B5B5B" stroke-width="1.41773917" stroke-linejoin="round" points="75.1379525 130.446845 57.2390117 105.239313 38.4294008 116.807671 56.3864487 142.710681"></polygon>
            </g>
        </g>
    </g>
</svg>