<?xml version="1.0" encoding="UTF-8" standalone="no"?>
<svg width="59px" height="82px" viewBox="0 0 59 82" version="1.1" xmlns="http://www.w3.org/2000/svg" xmlns:xlink="http://www.w3.org/1999/xlink">
    <!-- Generator: Sketch 43.1 (39012) - http://www.bohemiancoding.com/sketch -->
    <title>Group</title>
    <desc>Created with Sketch.</desc>
    <defs></defs>
    <g id="Icons" stroke="none" stroke-width="1" fill="none" fill-rule="evenodd">
        <g id="Group" transform="translate(1.000000, 1.000000)">
            <polygon id="Fill-121" fill="#3168FD" points="17.7819122 79.9786122 11.7632668 70.4325462 0.495557498 73.6942489 14.1005652 36.3581769 31.3855603 42.6425402"></polygon>
            <polygon id="Stroke-122" stroke="#494949" stroke-width="1.6" stroke-linejoin="round" points="17.7819122 79.9786122 11.7632668 70.4325462 0.495557498 73.6942489 14.1005652 36.3581769 31.3855603 42.6425402"></polygon>
            <polygon id="Fill-123" fill="#3168FD" points="38.4115283 79.9786122 44.4301738 70.4325462 55.6972032 73.6942489 42.0928754 36.3581769 24.8065206 42.6425402"></polygon>
            <polygon id="Stroke-124" stroke="#494949" stroke-width="1.6" stroke-linejoin="round" points="38.4115283 79.9786122 44.4301738 70.4325462 55.6972032 73.6942489 42.0928754 36.3581769 24.8065206 42.6425402"></polygon>
            <polygon id="Fill-125" fill="#3168FD" points="55.275497 38.8567784 52.7886332 31.6603879 56.9173165 25.3183013 51.3813592 20.1001202 52.072759 12.5689349 44.7556144 10.5180621 41.8520072 3.52947522 34.4322064 5.10973386 28.5957587 0.269130697 22.7742675 5.11245024 15.3422295 3.534908 12.4535788 10.5268903 5.12419704 12.5811587 5.83327275 20.1109858 0.287117793 25.3339205 4.43279724 31.6726116 1.93709549 38.8710394 8.56963873 42.5605732 9.69409819 50.0917585 17.2967766 50.2791893 21.7844169 56.426375 28.6175136 53.0634869 35.4370135 56.4223004 39.9348514 50.2737565 47.523933 50.0815721 48.6592699 42.5490286"></polygon>
            <polygon id="Stroke-126" stroke="#494949" stroke-width="1.6" stroke-linejoin="round" points="55.275497 38.8567784 52.7886332 31.6603879 56.9173165 25.3183013 51.3813592 20.1001202 52.072759 12.5689349 44.7556144 10.5180621 41.8520072 3.52947522 34.4322064 5.10973386 28.5957587 0.269130697 22.7742675 5.11245024 15.3422295 3.534908 12.4535788 10.5268903 5.12419704 12.5811587 5.83327275 20.1109858 0.287117793 25.3339205 4.43279724 31.6726116 1.93709549 38.8710394 8.56963873 42.5605732 9.69409819 50.0917585 17.2967766 50.2791893 21.7844169 56.426375 28.6175136 53.0634869 35.4370135 56.4223004 39.9348514 50.2737565 47.523933 50.0815721 48.6592699 42.5490286"></polygon>
            <path d="M11.1932868,29.1630767 C11.1932868,19.6129361 18.9428113,11.8698725 28.5041159,11.8698725 C38.0647407,11.8698725 45.8156248,19.6129361 45.8156248,29.1630767 C45.8156248,38.7132173 38.0647407,46.4556018 28.5041159,46.4556018 C18.9428113,46.4556018 11.1932868,38.7132173 11.1932868,29.1630767" id="Fill-127" fill="#FFFFFF"></path>
            <path d="M11.1932868,29.1630767 C11.1932868,19.6129361 18.9428113,11.8698725 28.5041159,11.8698725 C38.0647407,11.8698725 45.8156248,19.6129361 45.8156248,29.1630767 C45.8156248,38.7132173 38.0647407,46.4556018 28.5041159,46.4556018 C18.9428113,46.4556018 11.1932868,38.7132173 11.1932868,29.1630767 Z" id="Stroke-128" stroke="#494949" stroke-width="1.6"></path>
            <path d="M33.3067271,37.2027698 C33.4617312,36.8625422 33.4821265,36.5012626 33.3685928,36.1189311 C33.2543793,35.7372786 33.0429483,35.3712453 32.7329401,35.0201522 C32.4229319,34.6697381 32.0612557,34.4320542 31.6479115,34.3077795 L30.8422981,34.3077795 C30.8422981,31.8508066 30.847057,31.0915762 30.8572547,28.6447899 C30.8674523,26.1986826 30.8620136,23.7369561 30.8422981,21.2596104 C30.8422981,21.0742169 30.7743139,20.8677714 30.6403849,20.640274 C30.5057761,20.4134556 30.3562108,20.2382486 30.191009,20.1139738 C29.8395305,19.8158502 29.431625,19.667128 28.9686523,19.667128 C28.8870712,19.667128 28.8041304,19.6718817 28.7184702,19.68071 C28.1501219,19.7425078 27.59741,19.9285803 27.0603344,20.2382486 C26.522579,20.5479168 25.404918,21.453153 25.0017714,21.9285209 C24.5986248,22.4025306 24.3661187,22.867712 24.304253,23.3213488 C24.2627826,23.5902712 24.2988143,23.8530817 24.4130278,24.1111385 C24.5265615,24.3698745 24.6863245,24.5912601 24.8936764,24.7766536 C25.0996687,24.9627261 25.3376136,25.101941 25.6061514,25.1942982 C25.6285862,25.2024474 25.6557799,25.2058428 25.6877325,25.2058428 C26.0256142,25.2058428 26.8142314,24.7848027 27.0603344,24.7277586 L27.0603344,34.3077795 C26.419243,34.3077795 25.8930449,34.4992848 25.4790208,34.8802582 C25.0656766,35.2632689 24.8127752,35.6856672 24.7196368,36.1501695 C24.6264983,36.6146718 24.6985616,37.0438611 24.9365065,37.435021 C25.1737715,37.8268599 25.6136296,38.023798 26.2540412,38.023798 C27.1840658,38.0434919 28.1759559,38.0597902 29.2297118,38.0692975 C29.2922573,38.0699766 29.3548028,38.0706557 29.4159886,38.0706557 C30.4037997,38.0706557 31.3657769,37.9925596 32.2992006,37.8384046 C32.815201,37.7541965 33.1510432,37.5436765 33.3067271,37.2027698" id="Fill-129" fill="#494949"></path>
        </g>
    </g>
</svg>